<svg width="32" height="32" fill="none" xmlns="http://www.w3.org/2000/svg"><path fill-rule="evenodd" clip-rule="evenodd" d="M16.943 5.724a1.333 1.333 0 10-1.886 1.886l7.057 7.057H6.668a1.333 1.333 0 100 2.667h15.447l-7.057 7.057a1.333 1.333 0 101.886 1.885l9.333-9.333c.52-.52.52-1.365 0-1.886l-9.333-9.333z" fill="#596982"/><path d="M8 1h16v-2H8v2zm23 7v16h2V8h-2zm-7 23H8v2h16v-2zM1 24V8h-2v16h2zm7 7a7 7 0 01-7-7h-2a9 9 0 009 9v-2zm23-7a7 7 0 01-7 7v2a9 9 0 009-9h-2zM24 1a7 7 0 017 7h2a9 9 0 00-9-9v2zM8-1a9 9 0 00-9 9h2a7 7 0 017-7v-2z" fill="#596982"/></svg>