<svg width="32" height="32" fill="none" xmlns="http://www.w3.org/2000/svg"><path fill-rule="evenodd" clip-rule="evenodd" d="M15.057 5.724a1.333 1.333 0 111.886 1.886l-7.058 7.057h15.448a1.333 1.333 0 110 2.667H9.886l7.057 7.057a1.333 1.333 0 11-1.886 1.885l-9.333-9.333a1.333 1.333 0 010-1.886l9.333-9.333z" fill="#596982"/><path d="M24 1H8v-2h16v2zM1 8v16h-2V8h2zm7 23h16v2H8v-2zm23-7V8h2v16h-2zm-7 7a7 7 0 007-7h2a9 9 0 01-9 9v-2zM1 24a7 7 0 007 7v2a9 9 0 01-9-9h2zM8 1a7 7 0 00-7 7h-2a9 9 0 019-9v2zm16-2a9 9 0 019 9h-2a7 7 0 00-7-7v-2z" fill="#596982"/></svg>