<svg xmlns="http://www.w3.org/2000/svg" xmlns:xlink="http://www.w3.org/1999/xlink" viewBox="0 0 32 32"><defs><path id="a" d="M32 8c0-4.4-3.6-8-8-8H8C3.6 0 0 3.6 0 8v16c0 4.4 3.6 8 8 8h16c4.4 0 8-3.6 8-8V8z"/></defs><clipPath id="b"><use xlink:href="#a" overflow="visible"/></clipPath><path d="M24-1c5 0 9 4 9 9h-2c0-3.9-3.1-7-7-7v-2zM8 1C4.1 1 1 4.1 1 8h-2c0-5 4-9 9-9v2zM1 24c0 3.9 3.1 7 7 7v2c-5 0-9-4-9-9h2zm23 7c3.9 0 7-3.1 7-7h2c0 5-4 9-9 9v-2zm7-7V8h2v16h-2zM8 31h16v2H8v-2zM1 8v16h-2V8h2zm23-7H8v-2h16v2z" clip-path="url(#b)" fill="#596982"/><path d="M15.1 5.7c.5-.5 1.4-.5 1.9 0s.5 1.4 0 1.9l-7.1 7.1h15.4c.7 0 1.3.6 1.3 1.3s-.6 1.3-1.3 1.3H9.9l7.1 7.1c.5.5.5 1.4 0 1.9s-1.4.5-1.9 0L5.8 17c-.5-.5-.5-1.4 0-1.9l9.3-9.4z" clip-path="url(#b)" fill-rule="evenodd" clip-rule="evenodd" fill="#596982"/></svg>