<svg xmlns="http://www.w3.org/2000/svg" xmlns:xlink="http://www.w3.org/1999/xlink" viewBox="0 0 32 32"><defs><path id="a" d="M0 8c0-4.4 3.6-8 8-8h16c4.4 0 8 3.6 8 8v16c0 4.4-3.6 8-8 8H8c-4.4 0-8-3.6-8-8V8z"/></defs><clipPath id="b"><use xlink:href="#a" overflow="visible"/></clipPath><path d="M8-1C3-1-1 3-1 8h2c0-3.9 3.1-7 7-7v-2zm16 2c3.9 0 7 3.1 7 7h2c0-5-4-9-9-9v2zm7 23c0 3.9-3.1 7-7 7v2c5 0 9-4 9-9h-2zM8 31c-3.9 0-7-3.1-7-7h-2c0 5 4 9 9 9v-2zm-7-7V8h-2v16h2zm23 7H8v2h16v-2zm7-23v16h2V8h-2zM8 1h16v-2H8v2z" clip-path="url(#b)" fill="#596982"/><path d="M16.9 5.7c-.5-.5-1.4-.5-1.9 0s-.5 1.4 0 1.9l7.1 7.1H6.7c-.7 0-1.3.6-1.3 1.3s.6 1.3 1.3 1.3h15.4L15 24.4c-.5.5-.5 1.4 0 1.9s1.4.5 1.9 0l9.3-9.3c.5-.5.5-1.4 0-1.9l-9.3-9.4z" clip-path="url(#b)" fill-rule="evenodd" clip-rule="evenodd" fill="#596982"/></svg>