<svg width="486" height="337" fill="none" xmlns="http://www.w3.org/2000/svg"><g clip-path="url(#clip0)"><path opacity=".1" d="M251.129 57.486c-30.664 5.164-61.307 2.849-90.79-.495-29.483-3.343-58.863-7.693-89.575-6.48-19.742.8-41.732 4.712-55.481 16.192C2.045 77.753.013 92.7 0 106.194c0 10.155.86 20.654 8.004 28.756 4.946 5.62 12.555 9.656 18.287 14.841 19.953 18.042 13.963 46.346.958 70.399-6.101 11.282-13.569 22.375-17.715 33.915-4.146 11.54-4.675 23.937 2.819 33.39 7.424 9.368 21.757 14.673 36.692 17.44 30.338 5.624 64.109 2.259 96.784-2.332 72.333-10.159 143.909-26.153 215.292-42.108 26.415-5.908 52.946-11.842 78.395-20.387 14.131-4.733 28.516-10.684 37.629-19.935 11.566-11.751 11.833-27.818.623-37.435-18.806-16.166-61.278-12.689-75.834-31.148-8.013-10.198-4.568-23.967 1.757-36.101 13.573-26.067 39.872-51.785 36.383-77.813-2.397-17.874-20.408-32.702-44.508-36.575-25.259-4.096-57.668 3.473-72.182 21.411-14.905 18.455-45.178 30.422-72.255 34.974z" fill="#fff"/><path d="M367.218 46.08c-.52 1.669-1.044 3.339-1.719 4.96a42.014 42.014 0 01-4.344 8.008 58.161 58.161 0 01-3.626 4.76c-1.616 1.905-3.416 3.824-3.987 6.26-.331 1.407-.219 2.879-.361 4.303s-.602 2.96-1.766 3.82c-.829.616-1.891.801-2.909.965-.73.116-1.641.15-2.024-.482a1.903 1.903 0 01-.197-.835l-.176-2.104c-.039-.452-.198-1.037-.653-1.059-.456-.021-.684.585-1.07.86-.516.362-1.289 0-1.573-.546a2.665 2.665 0 01-.047-1.846 8.767 8.767 0 014.503-5.593 12.86 12.86 0 002.191-1.145 7.507 7.507 0 001.719-2.177c3.987-6.575 7.995-13.184 10.805-20.34a14.996 14.996 0 001.118-4.006c.137-1.411-.082-2.822-.172-4.238a24.227 24.227 0 01.691-7.539 6.024 6.024 0 01.722-1.837c1.16-1.76 3.867-2.022 5.586-.804a5.75 5.75 0 012.225 4.074c.125 1.425-.696 2.905-1.112 4.234-1.275 4.108-2.55 8.21-3.824 12.306z" fill="#A1616A"/><path opacity=".05" d="M367.218 46.08c-.52 1.669-1.044 3.339-1.719 4.96a42.014 42.014 0 01-4.344 8.008 58.161 58.161 0 01-3.626 4.76c-1.616 1.905-3.416 3.824-3.987 6.26-.331 1.407-.219 2.879-.361 4.303s-.602 2.96-1.766 3.82c-.829.616-1.891.801-2.909.965-.73.116-1.641.15-2.024-.482a1.903 1.903 0 01-.197-.835l-.176-2.104c-.039-.452-.198-1.037-.653-1.059-.456-.021-.684.585-1.07.86-.516.362-1.289 0-1.573-.546a2.665 2.665 0 01-.047-1.846 8.767 8.767 0 014.503-5.593 12.86 12.86 0 002.191-1.145 7.507 7.507 0 001.719-2.177c3.987-6.575 7.995-13.184 10.805-20.34a14.996 14.996 0 001.118-4.006c.137-1.411-.082-2.822-.172-4.238a24.227 24.227 0 01.691-7.539 6.024 6.024 0 01.722-1.837c1.16-1.76 3.867-2.022 5.586-.804a5.75 5.75 0 012.225 4.074c.125 1.425-.696 2.905-1.112 4.234-1.275 4.108-2.55 8.21-3.824 12.306z" fill="#000"/><path d="M392.266 116.379a5.778 5.778 0 01-2.423.289c-.06-.672-.962-.822-1.632-.788a1.878 1.878 0 00-.933.215c-.167.108-.296.267-.46.375-.29.161-.617.246-.949.245l-3.489.293c-1.555.133-3.175.258-4.632-.302a1.568 1.568 0 01-.743-.499c-.395-.568 0-1.381.546-1.79.545-.408 1.25-.602 1.8-1.024 1.212-.925 1.379-2.655 2.019-4.036a11.683 11.683 0 011.672-2.427 9.089 9.089 0 011.645-1.686c1.397-1.016 3.008-.994 4.654-1.141 1.16-.103 2.251-.167 3.084.861 1.027 1.291.619 3.872.555 5.383a38.957 38.957 0 01-.714 6.032z" fill="#514E7F"/><path opacity=".05" d="M392.266 116.379a5.778 5.778 0 01-2.423.289c-.06-.672-.962-.822-1.632-.788a1.878 1.878 0 00-.933.215c-.167.108-.296.267-.46.375-.29.161-.617.246-.949.245l-3.489.293c-1.555.133-3.175.258-4.632-.302a1.568 1.568 0 01-.743-.499c-.395-.568 0-1.381.546-1.79.545-.408 1.25-.602 1.8-1.024 1.212-.925 1.379-2.655 2.019-4.036a11.683 11.683 0 011.672-2.427 9.089 9.089 0 011.645-1.686c1.397-1.016 3.008-.994 4.654-1.141 1.16-.103 2.251-.167 3.084.861 1.027 1.291.619 3.872.555 5.383a38.957 38.957 0 01-.714 6.032z" fill="#000"/><path d="M390.857 48.412c1.066.344 1.53 1.673 1.332 2.784-.198 1.11-.859 2.056-1.405 3.037-1.555 2.784-2.225 5.968-3.532 8.873-.975 2.173-2.294 4.178-3.261 6.355-.966 2.177-1.555 4.634-.975 6.94.288 1.124.859 2.152 1.203 3.258.362 1.198.598 2.431.705 3.679.473 4.237.558 8.51.253 12.762a3.79 3.79 0 01-.318 1.506c-.219.43-.597.86-.429 1.291.073.176.227.305.309.478.223.482-.224.994-.632 1.338a1.1 1.1 0 00.683.529 1.63 1.63 0 00-.691 1.807c.365.052.386.611.159.9-.228.288-.589.473-.752.804a1.126 1.126 0 00.619 1.412 2.91 2.91 0 001.684.129c.963-.13 1.914-.336 2.844-.616.307-.078.598-.211.859-.391.467-.455.745-1.07.778-1.721.213-1.752.277-3.518.193-5.28-.154-8.537 0-17.082.37-25.615.15-3.442 1.181-6.777 2.505-9.944a53.331 53.331 0 012.449-4.755c1.907-3.498 3.587-7.37 3.158-11.363-.047-.43-.206-.943-.628-1.012a.908.908 0 00-.485.082c-.884.413-1.738.886-2.556 1.416a9.69 9.69 0 01-4.439 1.317z" fill="#464353"/><path opacity=".05" d="M390.857 48.412c1.066.344 1.53 1.673 1.332 2.784-.198 1.11-.859 2.056-1.405 3.037-1.555 2.784-2.225 5.968-3.532 8.873-.975 2.173-2.294 4.178-3.261 6.355-.966 2.177-1.555 4.634-.975 6.94.288 1.124.859 2.152 1.203 3.258.362 1.198.598 2.431.705 3.679.473 4.237.558 8.51.253 12.762a3.79 3.79 0 01-.318 1.506c-.219.43-.597.86-.429 1.291.073.176.227.305.309.478.223.482-.224.994-.632 1.338a1.1 1.1 0 00.683.529 1.63 1.63 0 00-.691 1.807c.365.052.386.611.159.9-.228.288-.589.473-.752.804a1.126 1.126 0 00.619 1.412 2.91 2.91 0 001.684.129c.963-.13 1.914-.336 2.844-.616.307-.078.598-.211.859-.391.467-.455.745-1.07.778-1.721.213-1.752.277-3.518.193-5.28-.154-8.537 0-17.082.37-25.615.15-3.442 1.181-6.777 2.505-9.944a53.331 53.331 0 012.449-4.755c1.907-3.498 3.587-7.37 3.158-11.363-.047-.43-.206-.943-.628-1.012a.908.908 0 00-.485.082c-.884.413-1.738.886-2.556 1.416a9.69 9.69 0 01-4.439 1.317z" fill="#000"/><path d="M405.263 38.037a3.663 3.663 0 011.857-.59c.764.04 1.417.543 2.015 1.025a20.647 20.647 0 012.01 1.764 10.77 10.77 0 012.389 10.62c-.631 1.897-1.787 3.57-2.93 5.21l-2.32 3.34c-3.54 5.09-7.081 10.18-10.789 15.15a.572.572 0 01-.404.546c-.137.035-.3.03-.382.142a.43.43 0 00-.047.228c.008.37.078.734.206 1.08a.5.5 0 01.043.366c-.12.28-.627.125-.791.383-.107.172.026.396.168.542.142.146.318.31.292.512-.026.202-.378.43-.365.68 0 .146.129.258.219.374a.964.964 0 01-.116 1.222c-.245 2.427 1.074 4.733 1.336 7.152.43 3.82-1.31 7.551-1.521 11.385.013.431-.069.86-.24 1.256-.357.663-1.289 1.063-1.242 1.816.067.309.153.614.258.912.073.431-.129.861-.138 1.291-.008.431.37.96.778.792a48.726 48.726 0 00-.812 3.068l-8.121.671a7.24 7.24 0 01.074-2.194c.163-.783.519-1.519.704-2.298a2.711 2.711 0 00-.322-2.302.902.902 0 00.898-.736 3.584 3.584 0 000-1.265c-.215-2.121.674-4.212.644-6.342-.021-1.678-.61-3.288-.906-4.94-.636-3.528.026-7.354-1.543-10.572-.949-1.945-2.264-4.096-1.198-5.977.524-.93 1.452-1.566 2.058-2.444a10 10 0 001.1-2.659c1.25-3.873 3.274-7.474 5.048-11.153.482-.918.841-1.896 1.066-2.909.126-.895.17-1.799.133-2.702.003-1.625.104-3.249.301-4.862a4.63 4.63 0 01.588-2.01 4.525 4.525 0 011.289-1.157c2.664-1.855 5.852-2.9 8.713-4.415z" fill="#464353"/><path d="M395.528 119.357a5.819 5.819 0 01-2.428.288c-.06-.667-.958-.822-1.628-.787a1.893 1.893 0 00-.937.215c-.163.108-.292.267-.46.374-.29.162-.617.247-.949.246l-3.485.296c-1.559.13-3.175.254-4.636-.305a1.506 1.506 0 01-.739-.499c-.399-.568 0-1.377.546-1.79.546-.413 1.25-.603 1.796-1.02 1.211-.929 1.379-2.655 2.023-4.04.45-.876 1.011-1.69 1.668-2.423a9.44 9.44 0 011.645-1.691c1.401-1.015 3.008-.994 4.653-1.136 1.165-.107 2.256-.172 3.085.861 1.031 1.291.619 3.872.559 5.383a39.026 39.026 0 01-.713 6.028z" fill="#514E7F"/><path d="M359.54 23.95c4.442 0 8.043-3.607 8.043-8.055 0-4.449-3.601-8.055-8.043-8.055-4.442 0-8.044 3.606-8.044 8.055 0 4.448 3.602 8.055 8.044 8.055z" fill="#A1616A"/><path d="M367.123 18.287c1.156.994 2.81 1.072 4.322 1.226a26.934 26.934 0 019.294 2.69c.404.17.77.422 1.074.74.261.34.447.731.546 1.149a7.64 7.64 0 01.305 2.8 8.038 8.038 0 01-.778 2.639 14.215 14.215 0 01-4.984 5.688 3.65 3.65 0 01-1.263.607c-1.057.219-2.08-.392-3.124-.667a5.064 5.064 0 00-2.883.094c-.859.289-1.8.827-2.651.47a2.729 2.729 0 01-1.198-1.373 46.339 46.339 0 01-2.196-4.807 17.889 17.889 0 00-.795-1.871c-.932-1.782-2.543-3.154-3.347-4.996a1.092 1.092 0 01-.077-.942 1.29 1.29 0 01.593-.43 14.09 14.09 0 003.214-2.544c.528-.503 1.499-1.88 2.26-1.996.876-.155 1.112 1.024 1.688 1.523z" fill="#A1616A"/><path d="M366.938 34.655c.933.43 2.028.245 3.042.035 2.604-.542 5.238-1.097 7.648-2.225a4.144 4.144 0 001.878-1.446c.294-.56.472-1.172.524-1.802l.429-3.012c.155-1.046-.116-2.014-.137-3.073a.904.904 0 01.176-.667.718.718 0 01.524-.168c1.212 0 1.942 1.291 2.789 2.152.49.494 1.074.885 1.718 1.149.77.318 1.719.542 2.041 1.316.129.323.112.689.249 1.012.542 1.29 2.849.86 3.438 2.151.163.361.154.813.429 1.097.275.284.791.28 1.216.349 1.676.275 2.492 2.22 3.927 3.137 1.208.77 2.763.753 4.061 1.355.726.336 1.366.86 2.148 1.08.782.22 1.628.103 2.449.125a.637.637 0 01.485.159.65.65 0 01.082.534 14.842 14.842 0 01-3.056 6.954 14.81 14.81 0 01-6.096 4.526 3.09 3.09 0 00-.777.378c-.731.547-.86 1.721-1.689 2.109a1.715 1.715 0 01-1.757-.379c-.458-.441-.888-.91-1.289-1.403a5.045 5.045 0 00-2.831-1.493c-.997-.159-2.114-.043-2.918-.654a9.57 9.57 0 01-.919-.985 5.82 5.82 0 00-2.088-1.248 21.223 21.223 0 00-6.63-1.454c-2.114-.117-4.297.073-6.294-.616a3.731 3.731 0 01-1.405-.796 4.175 4.175 0 01-.937-1.63 12.447 12.447 0 01-.43-6.567z" fill="#fff"/><path d="M377.302 22.784c-.593-.052-1.186.021-1.784 0-.7 0-1.392-.172-2.092-.177a5.215 5.215 0 00-4.907 3.74.972.972 0 00-.03.529.375.375 0 00.404.275 9.22 9.22 0 01.903-1.811 5.128 5.128 0 012.702-1.885 7.033 7.033 0 013.317-.12c.455.085.907.21 1.353.33l2.149.595c.395.107.79.215 1.177.357.296.111.803.52 1.096.537.395 0 .073-.344-.104-.576a2.816 2.816 0 00-1.4-1.02 11.92 11.92 0 00-2.784-.774z" fill="#fff"/><path d="M371.897 46.979c-.52 1.67-1.04 3.343-1.693 4.965a42.038 42.038 0 01-4.387 8.008 58.178 58.178 0 01-3.626 4.759c-1.616 1.906-3.438 3.825-3.988 6.26-.33 1.407-.219 2.879-.356 4.303-.138 1.424-.606 2.96-1.766 3.821-.834.615-1.895.8-2.913.96-.726.12-1.637.155-2.02-.478a1.89 1.89 0 01-.201-.835l-.172-2.104c-.039-.43-.202-1.037-.653-1.058-.452-.022-.688.585-1.075.86-.515.362-1.289 0-1.572-.546a2.654 2.654 0 01-.043-1.85 8.776 8.776 0 014.498-5.594 13.422 13.422 0 002.196-1.145 7.504 7.504 0 001.719-2.177c3.987-6.575 7.995-13.184 10.81-20.34a15.103 15.103 0 001.113-4.01c.137-1.407-.078-2.822-.172-4.234a24.079 24.079 0 01.696-7.538 5.91 5.91 0 01.722-1.838c1.155-1.76 3.866-2.022 5.585-.804a5.777 5.777 0 012.23 4.075c.125 1.424-.7 2.904-1.113 4.233a8013.441 8013.441 0 00-3.819 12.307z" fill="#A1616A"/><path d="M347.836 10.202c-.065-.671.537-1.29 1.22-1.721.719-.38 1.41-.81 2.067-1.29.61-.53.941-1.214 1.555-1.748a6.795 6.795 0 012.316-1.153 17.69 17.69 0 015.551-1.003c1.916 0 3.867.43 5.311 1.407.351.22.657.505.902.84.227.413.373.865.429 1.333a26.411 26.411 0 001.388 4.221c.598 1.52 1.233 3.094 2.638 4.269 1.504 1.252 3.803 1.975 4.795 3.494a1.123 1.123 0 01.219.972c-.141.387-.597.646-1.018.887-2.445 1.402-4.546 3.223-5.633 5.395-1.087 2.173-1.048 4.734.494 6.734.568.74 1.35 1.618.795 2.363-.859 1.131-3.733.482-4.404 1.682-.21.379-.086.818-.09 1.23 0 1.257-1.203 2.372-2.668 2.953-1.465.58-3.162.718-4.812.791a4.213 4.213 0 01-.12-3.12c.109-.217.152-.463.124-.705a1.688 1.688 0 00-.554-.684c-1.762-1.665-1.392-4.122-.331-6.106s2.707-3.795 3.321-5.882c.301-1.037.305-2.203-.52-3.06a10.266 10.266 0 00-1.512-1.11 5.716 5.716 0 01-2.122-2.667c-.495-1.373-.43-3.012-1.865-3.933-1.379-.86-3.317-.615-4.842-1.205-1.169-.417-2.535-2.203-2.634-3.184z" fill="#464353"/><path d="M204.486 46.553c-.323 3.515 2.333 6.927 1.559 10.37-.167.735-.481 1.432-.597 2.177-.322 2.044.894 3.976 2.058 5.688l9.981 14.673a9.423 9.423 0 001.427 1.764c1.912 1.721 4.773 1.519 7.278 2.031a12.419 12.419 0 014.876 2.151.304.304 0 01.065.43 4.185 4.185 0 01-3.626 1.722c-.262.344 0 .86.361 1.101.537.375 1.289.474 1.383 1.382.034.317-.03.637-.185.916a2.83 2.83 0 01-1.744 1.214c-3.437 1.058-7.193-.8-9.779-3.33-2.587-2.53-4.443-5.724-6.982-8.301-1.405-1.424-3.008-2.642-4.451-4.023-2.887-2.758-5.135-6.106-7.304-9.466a10.39 10.39 0 01-1.581-3.223c-.267-1.14-.147-2.354-.456-3.486-.404-1.489-1.486-2.672-2.393-3.92-1.77-2.444-2.952-5.43-2.72-8.442.232-3.012 2.097-5.985 4.941-6.996a4.412 4.412 0 012.763-.168c1.16.357 2.015 1.32 2.814 2.242l1.891 2.194c.476.48.851 1.05 1.104 1.678a1.763 1.763 0 01-.387 1.868" fill="#FBBEBE"/><path opacity=".05" d="M204.486 46.553c-.323 3.515 2.333 6.927 1.559 10.37-.167.735-.481 1.432-.597 2.177-.322 2.044.894 3.976 2.058 5.688l9.981 14.673a9.423 9.423 0 001.427 1.764c1.912 1.721 4.773 1.519 7.278 2.031a12.419 12.419 0 014.876 2.151.304.304 0 01.065.43 4.185 4.185 0 01-3.626 1.722c-.262.344 0 .86.361 1.101.537.375 1.289.474 1.383 1.382.034.317-.03.637-.185.916a2.83 2.83 0 01-1.744 1.214c-3.437 1.058-7.193-.8-9.779-3.33-2.587-2.53-4.443-5.724-6.982-8.301-1.405-1.424-3.008-2.642-4.451-4.023-2.887-2.758-5.135-6.106-7.304-9.466a10.39 10.39 0 01-1.581-3.223c-.267-1.14-.147-2.354-.456-3.486-.404-1.489-1.486-2.672-2.393-3.92-1.77-2.444-2.952-5.43-2.72-8.442.232-3.012 2.097-5.985 4.941-6.996a4.412 4.412 0 012.763-.168c1.16.357 2.015 1.32 2.814 2.242l1.891 2.194c.476.48.851 1.05 1.104 1.678a1.763 1.763 0 01-.387 1.868" fill="#000"/><path d="M196.932 137.042c2.179 1.329 4.894 1.411 7.429 1.101.408-.051.894-.081 1.156.233.378.46-.069 1.131-.533 1.501a11.01 11.01 0 01-5.108 2.105 33.904 33.904 0 01-4.993.331c-4.554.077-9.135.155-13.646-.504a1.847 1.847 0 01-.743-.215 1.437 1.437 0 01-.563-.86c-.309-1.171.288-2.436 1.186-3.249.898-.813 2.054-1.291 3.179-1.721l3.966-1.545c.928-.361 2.419-1.325 3.437-1.252 1.861.146 3.657 3.15 5.233 4.075z" fill="#3F3D56"/><path opacity=".05" d="M196.932 137.042c2.179 1.329 4.894 1.411 7.429 1.101.408-.051.894-.081 1.156.233.378.46-.069 1.131-.533 1.501a11.01 11.01 0 01-5.108 2.105 33.904 33.904 0 01-4.993.331c-4.554.077-9.135.155-13.646-.504a1.847 1.847 0 01-.743-.215 1.437 1.437 0 01-.563-.86c-.309-1.171.288-2.436 1.186-3.249.898-.813 2.054-1.291 3.179-1.721l3.966-1.545c.928-.361 2.419-1.325 3.437-1.252 1.861.146 3.657 3.15 5.233 4.075z" fill="#000"/><path d="M194.165 84.349c1.646 2.199 3.356 4.733 2.948 7.457-.219 1.467-1.04 2.762-1.641 4.118a29.072 29.072 0 00-1.663 5.783c-.619 2.878-1.238 5.765-1.616 8.687-.429 3.3 1.594 12.853 1.783 16.175.043.8.138 1.669.692 2.246.219.228.511.43.606.71.06.286.014.584-.129.839-.932 2.099-2.836 3.661-4.95 4.556-2.113.895-7.256 2.436-9.551 2.513a1.86 1.86 0 01-.898-.116 1.749 1.749 0 01-.696-.796c-1.654-3.175-.064-14.466-.09-18.046 0-2.991-.726-5.96-.593-8.946.103-2.396.743-4.733.98-7.125.382-3.92-.34-7.853-1.057-11.726-.55-2.964-1.105-5.933-1.809-8.868-.43-1.785-.928-3.593-1.912-5.163-.778-1.235-1.835-2.264-2.72-3.421a15.507 15.507 0 01-3.05-11.347c.051-.4 5.727 1.438 6.217 1.653a19.465 19.465 0 015.538 3.571c1.289 1.248 2.346 2.922 3.493 4.324a356.7 356.7 0 014.808 5.99 445.664 445.664 0 015.31 6.932z" fill="#464353"/><path opacity=".05" d="M194.165 84.216c1.646 2.203 3.356 4.733 2.948 7.46-.219 1.468-1.04 2.759-1.641 4.114a29.077 29.077 0 00-1.663 5.783c-.619 2.883-1.238 5.766-1.616 8.688-.429 3.304 1.594 12.852 1.783 16.178.043.801.138 1.67.692 2.247.219.223.511.408.606.705.06.286.014.584-.129.839-.932 2.1-2.836 3.666-4.95 4.561-2.113.895-7.256 1.721-9.551 1.79a1.86 1.86 0 01-.898-.116 1.749 1.749 0 01-.696-.796c-1.654-3.175-.064-13.748-.09-17.328 0-2.99-.726-5.955-.593-8.945.103-2.397.743-4.733.98-7.126.382-3.915-.34-7.852-1.057-11.72-.55-2.97-1.105-5.939-1.809-8.869-.43-1.79-.928-3.597-1.912-5.163-.778-1.23-1.835-2.264-2.72-3.417a15.508 15.508 0 01-3.05-11.35c.051-.397 5.727 1.44 6.217 1.656a19.28 19.28 0 015.538 3.571c1.289 1.248 2.346 2.922 3.493 4.303a356.7 356.7 0 014.808 5.99c1.796 2.3 3.566 4.615 5.31 6.945z" fill="#000"/><path d="M212.507 35.938c5.109 0 9.251-4.148 9.251-9.265 0-5.116-4.142-9.264-9.251-9.264-5.109 0-9.25 4.148-9.25 9.265 0 5.116 4.141 9.264 9.25 9.264z" fill="#FBBEBE"/><path d="M204.181 26.286a11.99 11.99 0 01-7.674 5.383l.696 2.526c1.203 4.358 2.552 8.967 5.916 11.987-.369-1.475.108-3.059.937-4.333a16.721 16.721 0 013.141-3.287l5.323-4.638a1.47 1.47 0 00.4-.43c.131-.326.131-.69 0-1.016-.679-2.113-2.617-3.442-4.181-4.858a14.728 14.728 0 01-2.109-2.461c-1.092-1.523-1.749-.005-2.449 1.127z" fill="#FBBEBE"/><path d="M224.697 17.362l.206-1.721c-1.461.379-2.844-.86-3.777-2.152-.932-1.29-1.8-2.805-3.222-3.339-1.719-.65-3.558.392-5.208 1.253a16.45 16.45 0 01-5.98 1.957 4.07 4.07 0 00-.989.164c-1.074.383-1.581 1.721-1.74 2.956-.159 1.235-.111 2.526-.644 3.619-.4.826-1.091 1.445-1.513 2.259-1.13 2.19-.038 5.185-1.233 7.336l2.965-2.72c.275-.249.657-.511.954-.3.296.21.258.529.352.821.288.86 1.345 1.098 2.114.766.769-.331 1.323-1.063 1.882-1.72 1.31-1.55 2.874-2.91 4.726-3.572a6.032 6.032 0 014.98.297c1.383.783 2.397 2.607 4.094 2.672 2.325.086 3.292-4.247 4.366-5.96a2.104 2.104 0 01-.78-1.204 2.104 2.104 0 01.17-1.425c-.177-.073-1.693-.254-1.723.013z" fill="#464353"/><path d="M186.144 136.964a9.709 9.709 0 006.651 2.483c.623 0 1.486.121 1.491.745a1.047 1.047 0 01-.185.516 6.088 6.088 0 01-3.437 2.694c-1.337.404-2.759.339-4.151.266l-4.06-.21a34.1 34.1 0 01-2.303-.173c-.765-.09-1.59-.258-2.385-.374-1.958-.28-3.939-.374-5.916-.28-.52.022-1.13 0-1.452-.391-.322-.392-.15-1.115-.034-1.687.24-1.179 0-2.414.223-3.597.391-2.074 2.174-3.666 4.146-4.419 1.826-.697 5.066-1.493 6.793-.336 1.865 1.248 2.977 3.279 4.619 4.763z" fill="#3F3D56"/><path d="M182.122 67.426c-.361 1.721-2.011 3.012-2.058 4.754-.039 1.395.954 2.582 1.667 3.761a24.883 24.883 0 011.719 3.873 59.114 59.114 0 005.005 9.944c.954 1.51 2.02 3.154 1.801 4.93a7.388 7.388 0 01-.86 2.359l-2.857 5.684a16.223 16.223 0 00-1.456 3.593c-.25 1.08-.275 2.198-.43 3.3-.451 3.485-2.084 6.996-1.117 10.379.081.288.386.641.61.43-.941 1.764-1.719 3.545-1.629 5.546.039 1.05.361 2.152-.03 3.124-.218.38-.364.797-.429 1.231 0 .288.133.559.163.86.082.805-.657 1.476-1.422 1.721-.765.246-1.603.241-2.376.469-1.487.431-2.548 1.722-3.824 2.617a8.018 8.018 0 01-4.387 1.432 1.112 1.112 0 01-.649-.129 1.076 1.076 0 01-.361-.787 4.37 4.37 0 011.573-3.791c.241-.153.442-.363.584-.611.069-.221.087-.455.052-.684a51.176 51.176 0 01.167-9.385c.155-.988.206-1.991.151-2.99-.082-.831-.331-1.657-.241-2.487.09-.831.512-1.579.761-2.38.429-1.42.322-2.943.365-4.432.077-2.581.666-5.111 1.255-7.624.232-.986.489-2.023 1.185-2.754.593-.62 1.556-1.214 1.332-2.044a2.415 2.415 0 00-.545-.813 3.301 3.301 0 01-.684-2.491 1.105 1.105 0 01-1.288-.603c-4.645-2.19-8.4-6.579-10.054-11.45a3.816 3.816 0 00-.43-1.02c-.43-.602-1.177-.86-1.839-1.196-2.08-1.045-3.519-3.012-4.838-4.935-.765-1.115-1.534-2.268-1.865-3.584a11.786 11.786 0 01-.257-2.582l-.116-4.484c-.024-.29.005-.581.086-.86.11-.268.276-.51.485-.71a8.588 8.588 0 014.748-2.582c1.216-.215 2.462-.176 3.695-.275 2.393-.203 4.756-.943 7.154-.77 3.759.279 7.11 2.887 8.88 6.221.611 1.188 1.268 2.203 2.604 2.225z" fill="#464353"/><path d="M203.003 38.27a4.929 4.929 0 00.275 2.04c.288.627 1.027 1.114 1.672.86-.198-.43.318-.938.799-.887a1.484 1.484 0 011.053.9 3.38 3.38 0 01.309 2.07c-.155.86-.662 1.72-.529 2.603.108.731.645 1.463.357 2.151a3.49 3.49 0 01-.687.826 2.335 2.335 0 00.245 3.206l-7.21.146c.266 1.205-.275 2.44-.894 3.511a22.119 22.119 0 01-6.978 7.316 22.078 22.078 0 01-9.499 3.441 1.44 1.44 0 01.652 1.644 1.43 1.43 0 01-.304.55c-.589.582-1.581.513-2.316.13-.735-.383-1.31-1.003-1.985-1.485a6.056 6.056 0 00-4.073-1.097c-.902.086-1.779.375-2.685.43-2.669.142-4.967-1.78-7.519-2.581-1.874-.577-3.996-.572-5.586-1.743-.674-.503-1.233-1.334-1.035-2.151a3.64 3.64 0 01.782-1.265c.902-1.17 1.435-2.582 2.083-3.912a23.432 23.432 0 015.225-6.953 46.835 46.835 0 015.156-3.924c.438-.33.905-.618 1.396-.86a14.63 14.63 0 001.917-.78c.859-.533 1.336-1.476 1.989-2.237 1.426-1.67 3.622-2.436 5.383-3.748 1.182-.882 2.226-2.044 3.635-2.47.684-.206 1.418-.223 2.101-.43 1.56-.473 2.694-1.859 4.22-2.418 1.211-.43 2.543-.327 3.824-.486a8.826 8.826 0 003.922-1.494 4.807 4.807 0 011.289-.74c1.929-.59 2.088 3.012 2.269 4.264.266 1.85.747 3.705.747 5.573z" fill="#fff"/><path d="M201.117 50.36c-.322 3.516 2.329 6.928 1.56 10.37-.168.736-.486 1.434-.602 2.174-.318 2.043.898 3.98 2.063 5.692l9.981 14.669a9.11 9.11 0 001.426 1.764c1.912 1.7 4.774 1.523 7.278 2.03a12.487 12.487 0 014.877 2.152.32.32 0 01.064.43 4.195 4.195 0 01-3.626 1.722c-.262.344 0 .86.361 1.101.537.37 1.289.47 1.379 1.381.038.317-.025.638-.18.917a2.846 2.846 0 01-1.745 1.213c-3.437 1.059-7.192-.8-9.779-3.33-2.586-2.53-4.442-5.723-6.981-8.3-1.405-1.424-3.008-2.647-4.452-4.028-2.887-2.754-5.134-6.105-7.304-9.466a10.435 10.435 0 01-1.581-3.223c-.266-1.144-.146-2.353-.455-3.49-.404-1.484-1.491-2.667-2.394-3.915-1.77-2.444-2.956-5.43-2.719-8.442.236-3.012 2.092-5.977 4.928-7.001a4.416 4.416 0 012.763-.168c1.164.357 2.019 1.321 2.814 2.242l1.895 2.19c.474.483.85 1.055 1.104 1.683a1.758 1.758 0 01-.391 1.867" fill="#FBBEBE"/><path d="M196.069 35.916c1.315.077 2.754.21 3.682 1.145.388.431.701.924.928 1.458.902 1.833 1.774 3.752 1.843 5.796.052 1.635-.429 3.232-.67 4.85-.206 1.342.318 2.715.43 4.07-1.629-.495-3.777-1.175-5.251-2.022-.97-.634-2-1.168-3.076-1.597-1.564-.525-4.202.375-5.68 1.106-.082-1.046.704-2.87.623-3.92a4.469 4.469 0 00-.236-1.29 7.635 7.635 0 00-.787-1.253 5.13 5.13 0 01-.749-3.087 5.131 5.131 0 011.209-2.937c1.319-1.489 3.39-2.048 5.366-2.276a23.18 23.18 0 013.747-.133" fill="#fff"/><path d="M438.377 130.463l-8.593 86.057L133.752 337l-100.11-94.232-7.304-88.639L308.62 71.514l129.756 58.949z" fill="#DFE6F5"/><path opacity=".1" d="M133.752 337l-100.11-94.233-7.304-88.639 104.836 85.627L133.752 337z" fill="#000"/><path opacity=".05" d="M438.377 130.463l-8.593 86.057L133.752 337l-2.578-97.245 307.203-109.292z" fill="#000"/><path d="M34.716 160.798l275.839-78.312 114.288 52.925L130.959 239.54l-96.243-78.742z" fill="#A7ADB8"/><path d="M359.535 36.269l-3.39.344-89.003 8.967a18.076 18.076 0 00-11.171 5.392l-48.551 50.033L98.391 213.331l32.353 26.424 78.017-27.753 34.016-12.091 95.649-114.658 30.149-36.145s.782-10.279-9.04-12.84zm-90.906 55.545c-4.103 2.389-8.593 2.324-10.02-.142-.966-1.67-.279-4.014 1.539-6.097a13.179 13.179 0 013.304-2.702c3.394-1.975 7.042-2.267 9.022-.916a3.28 3.28 0 011.006 1.058c1.422 2.478-.748 6.416-4.851 8.8z" fill="#454B69"/><path opacity=".1" d="M359.535 36.269l-3.39.344c4.155 4.376 1.994 5.637 1.994 5.637l-32.654 37.116-116.724 132.636 34.016-12.091 95.649-114.658 30.149-36.145s.782-10.279-9.04-12.84z" fill="#000"/><path d="M263.452 82.873a13.181 13.181 0 00-3.304 2.69l12.318-3.607c-1.968-1.338-5.62-1.045-9.014.917zm-4.843 8.799c1.431 2.466 5.917 2.53 10.02.142s6.273-6.32 4.842-8.786a3.277 3.277 0 00-1.005-1.059l-12.318 3.606c-1.818 2.083-2.505 4.428-1.539 6.097z" fill="#DFE6F5"/><path opacity=".1" d="M322.205 285.925c9.348-4.692 16.317-9.716 15.564-11.22-.753-1.504-8.942 1.081-18.291 5.773-9.348 4.693-16.317 9.716-15.564 11.221.753 1.504 8.942-1.081 18.291-5.774z" fill="#fff"/><path d="M320.948 283.296c.902 0 1.633-.959 1.633-2.143 0-1.183-.731-2.143-1.633-2.143s-1.633.96-1.633 2.143c0 1.184.731 2.143 1.633 2.143z" fill="#3F3D56"/><path d="M320.948 280.676c.902 0 1.633-.96 1.633-2.143 0-1.184-.731-2.143-1.633-2.143s-1.633.959-1.633 2.143c0 1.183.731 2.143 1.633 2.143z" fill="#3F3D56"/><path d="M320.948 278.059c.902 0 1.633-.959 1.633-2.142 0-1.184-.731-2.143-1.633-2.143s-1.633.959-1.633 2.143c0 1.183.731 2.142 1.633 2.142z" fill="#3F3D56"/><path d="M320.948 275.443c.902 0 1.633-.959 1.633-2.142 0-1.184-.731-2.143-1.633-2.143s-1.633.959-1.633 2.143c0 1.183.731 2.142 1.633 2.142z" fill="#3F3D56"/><path d="M320.948 272.827c.902 0 1.633-.959 1.633-2.143 0-1.183-.731-2.142-1.633-2.142s-1.633.959-1.633 2.142c0 1.184.731 2.143 1.633 2.143z" fill="#3F3D56"/><path d="M320.948 270.211c.902 0 1.633-.959 1.633-2.143 0-1.183-.731-2.143-1.633-2.143s-1.633.96-1.633 2.143c0 1.184.731 2.143 1.633 2.143z" fill="#3F3D56"/><path d="M320.948 267.595c.902 0 1.633-.959 1.633-2.143 0-1.183-.731-2.143-1.633-2.143s-1.633.96-1.633 2.143c0 1.184.731 2.143 1.633 2.143z" fill="#3F3D56"/><path d="M327.062 247.543c.222-.285.424-.586.606-.899l-4.297-.706 4.645.035a7.862 7.862 0 00.146-6.205L321.936 243l5.745-4.226a7.826 7.826 0 00-8.2-3.739 7.834 7.834 0 00-2.939 1.212 7.845 7.845 0 00-1.79 11.296 7.837 7.837 0 00-.859 1.42l5.586 2.896-5.938-1.996a7.851 7.851 0 001.259 7.358 7.836 7.836 0 00-.887 8.267 7.824 7.824 0 007.037 4.411 7.833 7.833 0 007.779-8.672 7.834 7.834 0 00-1.628-4.006 7.857 7.857 0 000-9.686l-.039.008z" fill="#fff"/><path opacity=".1" d="M313.09 252.406a7.812 7.812 0 001.662 4.823 7.848 7.848 0 00-.887 8.267 7.83 7.83 0 007.038 4.412 7.815 7.815 0 007.037-4.412 7.84 7.84 0 00-.887-8.267c1.057-1.334-13.963-5.722-13.963-4.823z" fill="#000"/><path opacity=".1" d="M420.548 256.206c6.112-3.067 10.667-6.352 10.175-7.335-.492-.984-5.846.706-11.958 3.773-6.111 3.068-10.667 6.352-10.175 7.336.493.983 5.846-.706 11.958-3.774z" fill="#fff"/><path d="M419.73 254.497c.589 0 1.066-.626 1.066-1.398 0-.773-.477-1.399-1.066-1.399-.588 0-1.066.626-1.066 1.399 0 .772.478 1.398 1.066 1.398z" fill="#3F3D56"/><path d="M419.73 252.784c.589 0 1.066-.626 1.066-1.398 0-.772-.477-1.398-1.066-1.398-.588 0-1.066.626-1.066 1.398 0 .772.478 1.398 1.066 1.398z" fill="#3F3D56"/><path d="M419.73 251.072c.589 0 1.066-.626 1.066-1.399 0-.772-.477-1.398-1.066-1.398-.588 0-1.066.626-1.066 1.398 0 .773.478 1.399 1.066 1.399z" fill="#3F3D56"/><path d="M419.73 249.364c.589 0 1.066-.626 1.066-1.399 0-.772-.477-1.398-1.066-1.398-.588 0-1.066.626-1.066 1.398 0 .773.478 1.399 1.066 1.399z" fill="#3F3D56"/><path d="M419.73 247.651c.589 0 1.066-.626 1.066-1.398 0-.773-.477-1.399-1.066-1.399-.588 0-1.066.626-1.066 1.399 0 .772.478 1.398 1.066 1.398z" fill="#3F3D56"/><path d="M419.73 245.943c.589 0 1.066-.626 1.066-1.399 0-.772-.477-1.398-1.066-1.398-.588 0-1.066.626-1.066 1.398 0 .773.478 1.399 1.066 1.399z" fill="#3F3D56"/><path d="M419.73 244.23c.589 0 1.066-.626 1.066-1.398 0-.773-.477-1.399-1.066-1.399-.588 0-1.066.626-1.066 1.399 0 .772.478 1.398 1.066 1.398z" fill="#3F3D56"/><path d="M423.726 231.124c.146-.185.278-.381.395-.585l-2.806-.461h3.038a5.152 5.152 0 00.095-4.066l-4.069 2.113 3.755-2.763a5.12 5.12 0 00-3.283-2.409 5.117 5.117 0 00-3.999.754 5.125 5.125 0 00-1.165 7.387 5.22 5.22 0 00-.584.934l3.643 1.897-3.867-1.291a5.13 5.13 0 00.825 4.811 5.129 5.129 0 001.303 7.515 5.121 5.121 0 005.433 0 5.124 5.124 0 002.371-4.895 5.12 5.12 0 00-1.068-2.62 5.128 5.128 0 000-6.334l-.017.013z" fill="#fff"/><path opacity=".1" d="M414.591 234.291a5.097 5.097 0 001.096 3.167 5.127 5.127 0 001.303 7.514 5.11 5.11 0 007.32-2.106 5.127 5.127 0 00-.584-5.408c.683-.874-9.135-3.744-9.135-3.167z" fill="#000"/><path opacity=".1" d="M96.57 335.937c1.807-1.809-.286-6.84-4.676-11.236-4.39-4.396-9.412-6.492-11.22-4.682-1.807 1.809.287 6.84 4.676 11.236 4.39 4.396 9.413 6.492 11.22 4.682z" fill="#fff"/><path d="M89.42 328.713c1.371 0 2.483-1.459 2.483-3.257 0-1.799-1.112-3.258-2.483-3.258-1.372 0-2.484 1.459-2.484 3.258 0 1.798 1.112 3.257 2.484 3.257z" fill="#3F3D56"/><path d="M89.42 324.733c1.371 0 2.483-1.459 2.483-3.258s-1.112-3.257-2.483-3.257c-1.372 0-2.484 1.458-2.484 3.257 0 1.799 1.112 3.258 2.484 3.258z" fill="#3F3D56"/><path d="M89.42 320.748c1.371 0 2.483-1.458 2.483-3.257 0-1.799-1.112-3.258-2.483-3.258-1.372 0-2.484 1.459-2.484 3.258s1.112 3.257 2.484 3.257z" fill="#3F3D56"/><path d="M89.42 316.764c1.371 0 2.483-1.459 2.483-3.258s-1.112-3.257-2.483-3.257c-1.372 0-2.484 1.458-2.484 3.257 0 1.799 1.112 3.258 2.484 3.258z" fill="#3F3D56"/><path d="M89.42 312.784c1.371 0 2.483-1.459 2.483-3.258s-1.112-3.257-2.483-3.257c-1.372 0-2.484 1.458-2.484 3.257 0 1.799 1.112 3.258 2.484 3.258z" fill="#3F3D56"/><path d="M89.42 308.799c1.371 0 2.483-1.458 2.483-3.257 0-1.799-1.112-3.258-2.483-3.258-1.372 0-2.484 1.459-2.484 3.258s1.112 3.257 2.484 3.257z" fill="#3F3D56"/><path d="M89.42 304.819c1.371 0 2.483-1.458 2.483-3.257 0-1.799-1.112-3.258-2.483-3.258-1.372 0-2.484 1.459-2.484 3.258s1.112 3.257 2.484 3.257z" fill="#3F3D56"/><path d="M98.726 274.307c.34-.432.648-.888.924-1.364l-6.53-1.075 7.063.051a11.938 11.938 0 00.227-9.466l-9.478 4.922 8.74-6.454a11.918 11.918 0 00-7.645-5.67 11.903 11.903 0 00-4.858-.103 11.91 11.91 0 00-9.582 9.899 11.943 11.943 0 002.423 9.213c-.53.673-.985 1.401-1.357 2.173l8.477 4.41-9.023-3.037a11.951 11.951 0 001.92 11.187 11.933 11.933 0 003.041 17.478 11.896 11.896 0 0017.027-4.897 11.941 11.941 0 00-1.352-12.581 11.935 11.935 0 000-14.742l-.017.056z" fill="#fff"/><path opacity=".1" d="M77.463 281.665a11.883 11.883 0 002.547 7.371 11.933 11.933 0 003.04 17.478 11.894 11.894 0 0012.636 0 11.93 11.93 0 003.04-17.478c1.594-2.014-21.263-8.696-21.263-7.371z" fill="#000"/></g><defs><clipPath id="clip0"><path fill="#fff" d="M0 0h486v337H0z"/></clipPath></defs></svg>