<svg width="136" height="45" fill="none" xmlns="http://www.w3.org/2000/svg"><path fill-rule="evenodd" clip-rule="evenodd" d="M35.582 29.774a5.45 5.45 0 00-2.235.47 5.844 5.844 0 00-1.804 1.216 5.845 5.845 0 00-1.215 1.804c-.314.706-.432 1.412-.432 2.196 0 .784.157 1.53.432 2.196a5.845 5.845 0 001.215 1.803c.51.51 1.098.902 1.804 1.216.706.314 1.45.47 2.235.47.784 0 1.529-.156 2.235-.47a5.845 5.845 0 001.803-1.216c.51-.51.902-1.137 1.216-1.803.314-.667.431-1.412.431-2.196a5.92 5.92 0 00-.431-2.196c-.314-.667-.706-1.294-1.215-1.804-.51-.51-1.098-.94-1.804-1.215-.706-.353-1.451-.47-2.235-.47zm5.685 13.057v-.313a9.248 9.248 0 01-2.627 1.49c-.94.353-1.96.51-3.058.51-2.51 0-4.627-.902-6.43-2.667-1.765-1.764-2.667-3.92-2.667-6.43s.902-4.627 2.666-6.43c1.765-1.765 3.921-2.667 6.43-2.667 2.471 0 4.628.902 6.431 2.666 1.765 1.765 2.667 3.921 2.667 6.43v7.372c0 .47-.157.863-.51 1.177a1.7 1.7 0 01-1.176.51 1.63 1.63 0 01-1.216-.51c-.353-.275-.51-.667-.51-1.138zm20.468-7.371a5.92 5.92 0 00-.43-2.196c-.315-.666-.707-1.294-1.216-1.804-.51-.51-1.098-.94-1.804-1.215a5.31 5.31 0 00-2.235-.47c-.784 0-1.53.156-2.235.47a5.844 5.844 0 00-1.804 1.215 5.843 5.843 0 00-1.215 1.804c-.314.706-.432 1.412-.432 2.196 0 .784.157 1.53.432 2.196a5.843 5.843 0 001.215 1.803c.51.51 1.098.902 1.804 1.216.706.314 1.45.47 2.235.47.784 0 1.53-.156 2.235-.47a5.845 5.845 0 001.804-1.215c.51-.51.901-1.138 1.215-1.804a6.08 6.08 0 00.431-2.196zm-5.685-9.097c2.156 0 4.039.667 5.685 2v-8.078c0-.47.157-.901.47-1.215.315-.314.707-.47 1.216-.47.471 0 .863.156 1.216.47.314.314.51.706.51 1.215V35.46c0 2.51-.902 4.666-2.667 6.43-1.803 1.765-3.92 2.667-6.43 2.667s-4.627-.902-6.43-2.666c-1.765-1.765-2.667-3.922-2.667-6.431 0-2.51.902-4.627 2.666-6.43 1.804-1.765 3.921-2.667 6.43-2.667zm14.821 9.528c-1.02-.392-1.725-.784-2.156-1.215-.824-.824-1.216-1.804-1.216-2.941 0-.823.236-1.568.667-2.235.431-.667 1.02-1.215 1.725-1.686a7.792 7.792 0 012.392-1.059c.862-.235 1.764-.392 2.666-.392 2.706 0 5.02 1.098 6.94 3.255.236.274.353.627.353 1.02 0 .47-.157.9-.47 1.215-.314.313-.706.47-1.216.47-.353 0-.627-.078-.901-.274a9.743 9.743 0 01-.706-.628c-1.098-1.098-2.431-1.646-4-1.646-1.568 0-2.784.47-3.725 1.411a.973.973 0 00-.274.706c0 .314.157.51.431.627l7.568 2.51c1.058.392 1.764.823 2.156 1.215.824.824 1.216 1.804 1.216 2.941 0 .823-.236 1.568-.667 2.235-.431.667-1.02 1.215-1.725 1.686a8.04 8.04 0 01-2.353 1.059c-.862.235-1.764.392-2.627.392-2.705 0-5.019-1.059-6.94-3.215a1.72 1.72 0 01-.353-1.06c0-.47.157-.9.47-1.215.314-.313.706-.47 1.216-.47.353 0 .667.117.902.313.235.197.47.432.666.589 1.098 1.098 2.432 1.646 4.04 1.646 1.528 0 2.783-.47 3.724-1.45a.989.989 0 00.235-.667c0-.313-.156-.51-.43-.627l-7.608-2.51zm18.155 6.313c0 .628-.235 1.177-.667 1.647-.43.431-.98.667-1.646.667-.628 0-1.177-.236-1.647-.667-.432-.431-.667-.98-.667-1.647 0-.627.235-1.176.667-1.647.431-.43.98-.666 1.647-.666.627 0 1.176.235 1.646.666.47.471.667 1.02.667 1.647zm10.508-1.059c.784 0 1.529-.156 2.235-.47a5.847 5.847 0 001.804-1.215c.51-.51.902-1.138 1.215-1.804.314-.667.432-1.412.432-2.196 0-.784-.157-1.49-.432-2.196-.313-.666-.705-1.294-1.215-1.804-.51-.51-1.098-.94-1.804-1.215a5.31 5.31 0 00-2.235-.47c-.784 0-1.53.156-2.235.47a5.845 5.845 0 00-1.804 1.215 5.845 5.845 0 00-1.215 1.804c-.314.706-.431 1.412-.431 2.196 0 .784.156 1.53.43 2.196a5.845 5.845 0 001.216 1.803c.51.51 1.098.902 1.804 1.216.706.314 1.45.47 2.235.47zM93.85 28.402c1.607-1.333 3.49-2 5.685-2 2.47 0 4.627.902 6.431 2.667.901.862 1.568 1.843 1.999 2.94a9.206 9.206 0 01.667 3.49c0 2.51-.902 4.666-2.666 6.43-1.804 1.765-3.921 2.667-6.43 2.667-2.51 0-4.628-.902-6.431-2.666-1.765-1.765-2.667-3.921-2.667-6.43V20.284c0-.47.157-.901.47-1.215.315-.314.707-.47 1.216-.47.47 0 .863.156 1.216.47.314.314.51.706.51 1.215v8.117zm17.683 14.391V28.089c0-.47.157-.863.51-1.216.313-.314.745-.51 1.176-.51.47 0 .862.157 1.176.51.314.314.51.745.51 1.216v14.743c0 .47-.196.862-.51 1.215a1.7 1.7 0 01-1.176.51c-.471 0-.863-.157-1.176-.51-.353-.353-.51-.745-.51-1.254zm3.686-19.645c0 .55-.196 1.02-.589 1.412a1.924 1.924 0 01-1.411.588c-.549 0-1.02-.196-1.412-.588a1.925 1.925 0 01-.588-1.412c0-.549.196-1.02.588-1.412a1.926 1.926 0 011.412-.588c.549 0 1.019.196 1.411.588.393.393.589.863.589 1.412zm17.37 12.312c0-.784-.157-1.49-.432-2.196-.313-.666-.705-1.294-1.215-1.804-.51-.51-1.098-.94-1.804-1.215a5.31 5.31 0 00-2.235-.47c-.784 0-1.529.156-2.235.47a5.83 5.83 0 00-1.803 1.215 5.846 5.846 0 00-1.216 1.804c-.314.706-.431 1.412-.431 2.196 0 .784.157 1.53.431 2.196a5.846 5.846 0 001.216 1.803 5.83 5.83 0 001.803 1.216c.706.314 1.451.47 2.235.47.784 0 1.529-.156 2.235-.47a5.847 5.847 0 001.804-1.215c.51-.51.902-1.138 1.215-1.804a6.07 6.07 0 00.432-2.196zm-5.686-9.097c2.157 0 4.039.667 5.686 2v-8.078c0-.47.157-.901.47-1.215.314-.314.706-.47 1.216-.47.47 0 .862.156 1.215.47.314.314.51.706.51 1.215V35.46c0 2.51-.902 4.666-2.666 6.43-1.804 1.765-3.921 2.667-6.431 2.667-2.509 0-4.627-.902-6.43-2.666-1.765-1.765-2.667-3.922-2.667-6.431 0-2.51.902-4.627 2.667-6.43 1.803-1.765 3.921-2.667 6.43-2.667z" fill="#fff"/><path fill-rule="evenodd" clip-rule="evenodd" d="M37.935 9.62c.588-.156 1.215-.156 1.843-.078L30.367 6.68a4.973 4.973 0 00-2.392-.079A4.25 4.25 0 0025.858 7.7L1.43 30.402c-1.804 1.686-1.922 4.548-.236 6.352 1.686 1.804 4.549 1.921 6.352.235l22.586-20.977 5.685-5.294c.628-.549 1.373-.94 2.118-1.098z" fill="url(#paint0_linear)"/><path fill-rule="evenodd" clip-rule="evenodd" d="M49.083 11.144c2.745.667 5.725-.117 7.803-2.039l2.431-2.235a4.391 4.391 0 001.412-3.646c-.079-.823-.432-1.568-1.059-2.117l-.04-.04c-1.764-1.529-4.39-1.372-6.077.196l-9.097 8.47c1.451.47 3.098 1.059 4.627 1.411z" fill="url(#paint1_linear)"/><path fill-rule="evenodd" clip-rule="evenodd" d="M50.168 12.561c-.549-.04-1.098-.189-1.647-.353l-5.254-1.607c-.431-.118-.98-.275-1.45-.432-.706-.196-1.49-.274-2.197-.078a4.81 4.81 0 00-2.274 1.137l-5.803 5.215 11.96 3.646c.674.182 1.303.182 2.002.042.784-.157 1.409-.63 2.036-1.218l5.646-5.254.55-.51 3.058-2.823c-1.804 1.647-4.235 2.47-6.627 2.235z" fill="url(#paint2_linear)"/><defs><linearGradient id="paint0_linear" x1="-15.771" y1="-20.624" x2="31.068" y2="36.037" gradientUnits="userSpaceOnUse"><stop stop-color="#4690FF"/><stop offset="1" stop-color="#9966E0"/></linearGradient><linearGradient id="paint1_linear" x1="32.293" y1="31.62" x2="67.582" y2="-10.413" gradientUnits="userSpaceOnUse"><stop offset=".328" stop-color="#7E4D99"/><stop offset=".344" stop-color="#7B509E"/><stop offset=".471" stop-color="#6867C1"/><stop offset=".601" stop-color="#5979DC"/><stop offset=".731" stop-color="#4F86EF"/><stop offset=".864" stop-color="#488DFB"/><stop offset="1" stop-color="#4690FF"/></linearGradient><linearGradient id="paint2_linear" x1="35.456" y1="-4.127" x2="52.606" y2="29.656" gradientUnits="userSpaceOnUse"><stop offset=".328" stop-color="#7E4D99"/><stop offset=".344" stop-color="#7B509E"/><stop offset=".471" stop-color="#6867C1"/><stop offset=".601" stop-color="#5979DC"/><stop offset=".731" stop-color="#4F86EF"/><stop offset=".864" stop-color="#488DFB"/><stop offset="1" stop-color="#4690FF"/></linearGradient></defs></svg>